<svg width="141" height="20" viewBox="0 0 141 20" fill="none" xmlns="http://www.w3.org/2000/svg">
<path d="M8.69336 11.2793C8.69336 11.0254 8.6543 10.7975 8.57617 10.5957C8.50456 10.3874 8.36784 10.1986 8.16602 10.0293C7.96419 9.85352 7.68099 9.68099 7.31641 9.51172C6.95182 9.34245 6.47982 9.16667 5.90039 8.98438C5.25586 8.77604 4.64388 8.54167 4.06445 8.28125C3.49154 8.02083 2.98372 7.7181 2.54102 7.37305C2.10482 7.02148 1.75977 6.61458 1.50586 6.15234C1.25846 5.6901 1.13477 5.15299 1.13477 4.54102C1.13477 3.94857 1.26497 3.41146 1.52539 2.92969C1.78581 2.44141 2.15039 2.02474 2.61914 1.67969C3.08789 1.32812 3.64128 1.05794 4.2793 0.869141C4.92383 0.680339 5.63021 0.585938 6.39844 0.585938C7.44661 0.585938 8.36133 0.77474 9.14258 1.15234C9.92383 1.52995 10.5293 2.04753 10.959 2.70508C11.3952 3.36263 11.6133 4.11458 11.6133 4.96094H8.70312C8.70312 4.54427 8.61523 4.17969 8.43945 3.86719C8.27018 3.54818 8.00977 3.29753 7.6582 3.11523C7.31315 2.93294 6.87695 2.8418 6.34961 2.8418C5.8418 2.8418 5.41862 2.91992 5.08008 3.07617C4.74154 3.22591 4.48763 3.43099 4.31836 3.69141C4.14909 3.94531 4.06445 4.23177 4.06445 4.55078C4.06445 4.79167 4.12305 5.00977 4.24023 5.20508C4.36393 5.40039 4.54622 5.58268 4.78711 5.75195C5.02799 5.92122 5.32422 6.08073 5.67578 6.23047C6.02734 6.38021 6.43424 6.52669 6.89648 6.66992C7.67122 6.9043 8.35156 7.16797 8.9375 7.46094C9.52995 7.75391 10.0247 8.08268 10.4219 8.44727C10.819 8.81185 11.1185 9.22526 11.3203 9.6875C11.5221 10.1497 11.623 10.6738 11.623 11.2598C11.623 11.8783 11.5026 12.4316 11.2617 12.9199C11.0208 13.4082 10.6725 13.8216 10.2168 14.1602C9.76107 14.4987 9.21745 14.7559 8.58594 14.9316C7.95443 15.1074 7.24805 15.1953 6.4668 15.1953C5.76367 15.1953 5.07031 15.1042 4.38672 14.9219C3.70312 14.7331 3.08138 14.4499 2.52148 14.0723C1.9681 13.6947 1.52539 13.2129 1.19336 12.627C0.861328 12.041 0.695312 11.3477 0.695312 10.5469H3.63477C3.63477 10.9896 3.70312 11.3639 3.83984 11.6699C3.97656 11.9759 4.16862 12.2233 4.41602 12.4121C4.66992 12.6009 4.9694 12.7376 5.31445 12.8223C5.66602 12.9069 6.05013 12.9492 6.4668 12.9492C6.97461 12.9492 7.39128 12.8776 7.7168 12.7344C8.04883 12.5911 8.29297 12.3926 8.44922 12.1387C8.61198 11.8848 8.69336 11.5983 8.69336 11.2793Z" fill="black"/>
<path d="M20.6895 12.4707V4.43359H23.502V15H20.8555L20.6895 12.4707ZM21.002 10.3027L21.832 10.2832C21.832 10.9863 21.7507 11.6406 21.5879 12.2461C21.4251 12.8451 21.181 13.3659 20.8555 13.8086C20.5299 14.2448 20.1198 14.5866 19.625 14.834C19.1302 15.0749 18.5475 15.1953 17.877 15.1953C17.3626 15.1953 16.8874 15.1237 16.4512 14.9805C16.0215 14.8307 15.6504 14.5996 15.3379 14.2871C15.0319 13.9681 14.791 13.5612 14.6152 13.0664C14.446 12.5651 14.3613 11.9629 14.3613 11.2598V4.43359H17.1738V11.2793C17.1738 11.5918 17.2096 11.8555 17.2812 12.0703C17.3594 12.2852 17.4668 12.4609 17.6035 12.5977C17.7402 12.7344 17.8997 12.832 18.082 12.8906C18.2708 12.9492 18.4792 12.9785 18.707 12.9785C19.2865 12.9785 19.7422 12.8613 20.0742 12.627C20.4128 12.3926 20.6504 12.0736 20.7871 11.6699C20.9303 11.2598 21.002 10.804 21.002 10.3027Z" fill="black"/>
<path d="M29.4629 6.46484V19.0625H26.6504V4.43359H29.2578L29.4629 6.46484ZM36.1523 9.59961V9.80469C36.1523 10.5729 36.0612 11.2858 35.8789 11.9434C35.7031 12.6009 35.4427 13.1738 35.0977 13.6621C34.7526 14.1439 34.3229 14.5215 33.8086 14.7949C33.3008 15.0618 32.7148 15.1953 32.0508 15.1953C31.4062 15.1953 30.8464 15.0651 30.3711 14.8047C29.8958 14.5443 29.4954 14.1797 29.1699 13.7109C28.8509 13.2357 28.5938 12.6855 28.3984 12.0605C28.2031 11.4355 28.0534 10.765 27.9492 10.0488V9.51172C28.0534 8.74349 28.2031 8.04036 28.3984 7.40234C28.5938 6.75781 28.8509 6.20117 29.1699 5.73242C29.4954 5.25716 29.8926 4.88932 30.3613 4.62891C30.8366 4.36849 31.3932 4.23828 32.0312 4.23828C32.7018 4.23828 33.291 4.36523 33.7988 4.61914C34.3132 4.87305 34.7428 5.23763 35.0879 5.71289C35.4395 6.18815 35.7031 6.75456 35.8789 7.41211C36.0612 8.06966 36.1523 8.79883 36.1523 9.59961ZM33.3301 9.80469V9.59961C33.3301 9.15039 33.291 8.73698 33.2129 8.35938C33.1413 7.97526 33.0241 7.63997 32.8613 7.35352C32.7051 7.06706 32.4967 6.8457 32.2363 6.68945C31.9824 6.52669 31.6732 6.44531 31.3086 6.44531C30.9245 6.44531 30.5957 6.50716 30.3223 6.63086C30.0553 6.75456 29.8372 6.93359 29.668 7.16797C29.4987 7.40234 29.3717 7.68229 29.2871 8.00781C29.2025 8.33333 29.1504 8.70117 29.1309 9.11133V10.4688C29.1634 10.9505 29.2546 11.3835 29.4043 11.7676C29.554 12.1452 29.7852 12.4447 30.0977 12.666C30.4102 12.8874 30.8203 12.998 31.3281 12.998C31.6992 12.998 32.0117 12.9167 32.2656 12.7539C32.5195 12.5846 32.7246 12.3535 32.8809 12.0605C33.0436 11.7676 33.1576 11.429 33.2227 11.0449C33.2943 10.6608 33.3301 10.2474 33.3301 9.80469Z" fill="black"/>
<path d="M41.7129 6.46484V19.0625H38.9004V4.43359H41.5078L41.7129 6.46484ZM48.4023 9.59961V9.80469C48.4023 10.5729 48.3112 11.2858 48.1289 11.9434C47.9531 12.6009 47.6927 13.1738 47.3477 13.6621C47.0026 14.1439 46.5729 14.5215 46.0586 14.7949C45.5508 15.0618 44.9648 15.1953 44.3008 15.1953C43.6562 15.1953 43.0964 15.0651 42.6211 14.8047C42.1458 14.5443 41.7454 14.1797 41.4199 13.7109C41.1009 13.2357 40.8438 12.6855 40.6484 12.0605C40.4531 11.4355 40.3034 10.765 40.1992 10.0488V9.51172C40.3034 8.74349 40.4531 8.04036 40.6484 7.40234C40.8438 6.75781 41.1009 6.20117 41.4199 5.73242C41.7454 5.25716 42.1426 4.88932 42.6113 4.62891C43.0866 4.36849 43.6432 4.23828 44.2812 4.23828C44.9518 4.23828 45.541 4.36523 46.0488 4.61914C46.5632 4.87305 46.9928 5.23763 47.3379 5.71289C47.6895 6.18815 47.9531 6.75456 48.1289 7.41211C48.3112 8.06966 48.4023 8.79883 48.4023 9.59961ZM45.5801 9.80469V9.59961C45.5801 9.15039 45.541 8.73698 45.4629 8.35938C45.3913 7.97526 45.2741 7.63997 45.1113 7.35352C44.9551 7.06706 44.7467 6.8457 44.4863 6.68945C44.2324 6.52669 43.9232 6.44531 43.5586 6.44531C43.1745 6.44531 42.8457 6.50716 42.5723 6.63086C42.3053 6.75456 42.0872 6.93359 41.918 7.16797C41.7487 7.40234 41.6217 7.68229 41.5371 8.00781C41.4525 8.33333 41.4004 8.70117 41.3809 9.11133V10.4688C41.4134 10.9505 41.5046 11.3835 41.6543 11.7676C41.804 12.1452 42.0352 12.4447 42.3477 12.666C42.6602 12.8874 43.0703 12.998 43.5781 12.998C43.9492 12.998 44.2617 12.9167 44.5156 12.7539C44.7695 12.5846 44.9746 12.3535 45.1309 12.0605C45.2936 11.7676 45.4076 11.429 45.4727 11.0449C45.5443 10.6608 45.5801 10.2474 45.5801 9.80469Z" fill="black"/>
<path d="M50.7012 9.82422V9.61914C50.7012 8.8444 50.8118 8.13151 51.0332 7.48047C51.2546 6.82292 51.5768 6.25326 52 5.77148C52.4232 5.28971 52.944 4.91536 53.5625 4.64844C54.181 4.375 54.8906 4.23828 55.6914 4.23828C56.4922 4.23828 57.2051 4.375 57.8301 4.64844C58.4551 4.91536 58.9792 5.28971 59.4023 5.77148C59.832 6.25326 60.1576 6.82292 60.3789 7.48047C60.6003 8.13151 60.7109 8.8444 60.7109 9.61914V9.82422C60.7109 10.5924 60.6003 11.3053 60.3789 11.9629C60.1576 12.6139 59.832 13.1836 59.4023 13.6719C58.9792 14.1536 58.4583 14.528 57.8398 14.7949C57.2214 15.0618 56.5117 15.1953 55.7109 15.1953C54.9102 15.1953 54.1973 15.0618 53.5723 14.7949C52.9538 14.528 52.4297 14.1536 52 13.6719C51.5768 13.1836 51.2546 12.6139 51.0332 11.9629C50.8118 11.3053 50.7012 10.5924 50.7012 9.82422ZM53.5137 9.61914V9.82422C53.5137 10.2669 53.5527 10.6803 53.6309 11.0645C53.709 11.4486 53.8327 11.7871 54.002 12.0801C54.1777 12.3665 54.4056 12.5911 54.6855 12.7539C54.9655 12.9167 55.3073 12.998 55.7109 12.998C56.1016 12.998 56.4368 12.9167 56.7168 12.7539C56.9967 12.5911 57.2214 12.3665 57.3906 12.0801C57.5599 11.7871 57.6836 11.4486 57.7617 11.0645C57.8464 10.6803 57.8887 10.2669 57.8887 9.82422V9.61914C57.8887 9.18945 57.8464 8.78581 57.7617 8.4082C57.6836 8.02409 57.5566 7.68555 57.3809 7.39258C57.2116 7.0931 56.987 6.85872 56.707 6.68945C56.4271 6.52018 56.0885 6.43555 55.6914 6.43555C55.2943 6.43555 54.9557 6.52018 54.6758 6.68945C54.4023 6.85872 54.1777 7.0931 54.002 7.39258C53.8327 7.68555 53.709 8.02409 53.6309 8.4082C53.5527 8.78581 53.5137 9.18945 53.5137 9.61914Z" fill="black"/>
<path d="M66.252 6.73828V15H63.4395V4.43359H66.0859L66.252 6.73828ZM69.4355 4.36523L69.3867 6.97266C69.25 6.95312 69.084 6.93685 68.8887 6.92383C68.6999 6.9043 68.5273 6.89453 68.3711 6.89453C67.974 6.89453 67.6289 6.94661 67.3359 7.05078C67.0495 7.14844 66.8086 7.29492 66.6133 7.49023C66.4245 7.68555 66.2812 7.92318 66.1836 8.20312C66.0924 8.48307 66.0404 8.80208 66.0273 9.16016L65.4609 8.98438C65.4609 8.30078 65.5293 7.67253 65.666 7.09961C65.8027 6.52018 66.0013 6.01562 66.2617 5.58594C66.5286 5.15625 66.8542 4.82422 67.2383 4.58984C67.6224 4.35547 68.0618 4.23828 68.5566 4.23828C68.7129 4.23828 68.8724 4.2513 69.0352 4.27734C69.1979 4.29688 69.3314 4.32617 69.4355 4.36523Z" fill="black"/>
<path d="M77.4277 4.43359V6.42578H71.2754V4.43359H77.4277ZM72.7988 1.82617H75.6113V11.8164C75.6113 12.1224 75.6504 12.3568 75.7285 12.5195C75.8132 12.6823 75.9368 12.7962 76.0996 12.8613C76.2624 12.9199 76.4674 12.9492 76.7148 12.9492C76.8906 12.9492 77.0469 12.9427 77.1836 12.9297C77.3268 12.9102 77.4473 12.8906 77.5449 12.8711L77.5547 14.9414C77.3138 15.0195 77.0534 15.0814 76.7734 15.127C76.4935 15.1725 76.1842 15.1953 75.8457 15.1953C75.2272 15.1953 74.6868 15.0944 74.2246 14.8926C73.7689 14.6842 73.4173 14.3522 73.1699 13.8965C72.9225 13.4408 72.7988 12.8418 72.7988 12.0996V1.82617Z" fill="black"/>
<path d="M85.1855 13.2324L89.668 0.78125H90.9766L85.6836 15H84.7168L85.1855 13.2324ZM80.5566 0.78125L85.0195 13.2324L85.5078 15H84.5312L79.248 0.78125H80.5566Z" fill="black"/>
<path d="M92.7188 9.88281V9.56055C92.7188 8.79232 92.8294 8.08268 93.0508 7.43164C93.2721 6.7806 93.5879 6.21745 93.998 5.74219C94.4147 5.26693 94.9128 4.89909 95.4922 4.63867C96.0716 4.37174 96.7161 4.23828 97.4258 4.23828C98.1419 4.23828 98.7897 4.37174 99.3691 4.63867C99.9486 4.89909 100.447 5.26693 100.863 5.74219C101.28 6.21745 101.599 6.7806 101.82 7.43164C102.042 8.08268 102.152 8.79232 102.152 9.56055V9.88281C102.152 10.651 102.042 11.3607 101.82 12.0117C101.599 12.6562 101.28 13.2161 100.863 13.6914C100.453 14.1667 99.9583 14.5378 99.3789 14.8047C98.7995 15.0651 98.1549 15.1953 97.4453 15.1953C96.7292 15.1953 96.0814 15.0651 95.502 14.8047C94.9225 14.5378 94.4245 14.1667 94.0078 13.6914C93.5911 13.2161 93.2721 12.6562 93.0508 12.0117C92.8294 11.3607 92.7188 10.651 92.7188 9.88281ZM93.8809 9.56055V9.88281C93.8809 10.4622 93.959 11.0124 94.1152 11.5332C94.2715 12.0475 94.4993 12.5065 94.7988 12.9102C95.0983 13.3073 95.4694 13.6198 95.9121 13.8477C96.3548 14.0755 96.8659 14.1895 97.4453 14.1895C98.0182 14.1895 98.5228 14.0755 98.959 13.8477C99.4017 13.6198 99.7728 13.3073 100.072 12.9102C100.372 12.5065 100.596 12.0475 100.746 11.5332C100.902 11.0124 100.98 10.4622 100.98 9.88281V9.56055C100.98 8.98763 100.902 8.44401 100.746 7.92969C100.596 7.41536 100.368 6.95638 100.062 6.55273C99.763 6.14909 99.3919 5.83008 98.9492 5.5957C98.5065 5.36133 97.9987 5.24414 97.4258 5.24414C96.8529 5.24414 96.3451 5.36133 95.9023 5.5957C95.4661 5.83008 95.0951 6.14909 94.7891 6.55273C94.4896 6.95638 94.2617 7.41536 94.1055 7.92969C93.9557 8.44401 93.8809 8.98763 93.8809 9.56055Z" fill="black"/>
<path d="M106.873 0V15H105.711V0H106.873Z" fill="black"/>
<path d="M115.061 4.43359V5.39062H109.768V4.43359H115.061ZM111.711 1.71875H112.873V12.4316C112.873 12.9199 112.938 13.2878 113.068 13.5352C113.199 13.7826 113.368 13.9486 113.576 14.0332C113.785 14.1178 114.009 14.1602 114.25 14.1602C114.426 14.1602 114.595 14.1504 114.758 14.1309C114.921 14.1048 115.067 14.0788 115.197 14.0527L115.246 15.0391C115.103 15.0846 114.917 15.1204 114.689 15.1465C114.462 15.179 114.234 15.1953 114.006 15.1953C113.557 15.1953 113.16 15.1139 112.814 14.9512C112.469 14.7819 112.199 14.4954 112.004 14.0918C111.809 13.6816 111.711 13.125 111.711 12.4219V1.71875Z" fill="black"/>
<path fill-rule="evenodd" clip-rule="evenodd" d="M121 0H126.727L132.268 7.5L126.727 15H121L126.54 7.5L121 0Z" fill="#548235"/>
<path fill-rule="evenodd" clip-rule="evenodd" d="M129.105 0H134.833L140.373 7.5L134.833 15H129.105L134.646 7.5L129.105 0Z" fill="#4472C4"/>
</svg>
